:SAMPLES-PER-SECOND 30
:FULLY-SPECIFIED
:DEGREES
131
root  -72.4241 40.2518 11.7196 171.912 23.9355 175.044
RightUpLeg  -18.9418 -27.0598 -5.77046
RightLeg  27.834 -6.71532 -4.05438
RightFoot  -7.46122 0.0271016 -2.30827
RightToes  5.82063e-011 0 -3.6325e-017
Spine  22.9161 -0.19641 -4.85678
Spine1  8.8654 -0.597915 -2.77025
HEad  -28.7821 -29.5867 24.4711
LeftShoulder1  0.408289 2.33181 -28.7054
LeftArm  -9.34306 4.97142 -35.9481
LeftForeArm  45.8662 -76.1271 -46.3899
LeftHand  0.000673457 0.769773 -0.123143
RightShoulder  -0.259589 -4.24089 27.6969
RightArm  -7.8592 -5.14018 44.4736
RightForeArm  28.8491 75.334 47.8399
RightHand  -0.177573 1.22377 -3.28822
LeftUpLeg  5.46816 10.094 -0.6541
LeftLeg  13.73 29.7306 3.26481
LeftFoot  -8.7617 0.0786456 -1.16872
LeftToes  1.81573e-012 2.54609e-010 -3.45981e-011
132
root  -72.1421 40.2365 11.3723 172.14 28.3163 174.715
RightUpLeg  -17.6926 -28.0472 -6.23752
RightLeg  27.1105 -9.06242 -5.20443
RightFoot  -8.23592 0.0377627 -3.40694
RightToes  5.82063e-011 0 -3.6325e-017
Spine  21.3154 -0.733693 -4.26411
Spine1  8.60136 -1.19711 -2.16486
HEad  -27.3688 -29.6307 22.0845
LeftShoulder1  0.412949 2.30776 -28.4079
LeftArm  -8.53015 4.82679 -36.3819
LeftForeArm  44.5578 -75.9107 -45.5814
LeftHand  -0.0259245 0.922619 0.553828
RightShoulder  -0.382751 -4.58509 28.3603
RightArm  -8.43887 -6.24039 43.4931
RightForeArm  33.4028 76.1539 51.642
RightHand  -0.148443 2.126 -2.465
LeftUpLeg  6.44968 10.2788 -0.766033
LeftLeg  12.9338 33.8923 3.54181
LeftFoot  -8.62819 0.113639 -2.6049
LeftToes  1.81573e-012 2.54609e-010 -3.45981e-011
133
root  -71.711 40.2829 10.9913 172.509 32.6164 174.833
RightUpLeg  -14.7525 -27.0701 -6.35081
RightLeg  23.5674 -11.734 -5.76376
RightFoot  -7.94771 0.0497498 -3.49435
RightToes  5.82063e-011 0 -3.6325e-017
Spine  19.6165 -1.07282 -3.59126
Spine1  8.83528 -1.84048 -0.526506
HEad  -25.9815 -28.7628 18.2451
LeftShoulder1  0.339001 2.5361 -28.8937
LeftArm  -7.17819 5.06994 -35.7927
LeftForeArm  45.4726 -76.2808 -47.5249
LeftHand  -0.0350571 1.15649 0.792173
RightShoulder  -0.367236 -4.54949 28.0231
RightArm  -9.26551 -7.47779 43.3788
RightForeArm  35.7998 76.6138 54.4089
RightHand  -0.159823 1.85491 -2.72108
LeftUpLeg  7.87295 10.6283 -0.0867808
LeftLeg  11.7305 37.2994 3.11551
LeftFoot  -8.20716 0.133801 -3.091
LeftToes  1.81573e-012 2.54609e-010 -3.45981e-011
134
root  -71.1218 40.2725 10.6059 173.544 36.4745 175.797
RightUpLeg  -11.5067 -25.8275 -5.56241
RightLeg  18.9082 -11.8924 -4.66189
RightFoot  -6.32059 0.0258396 -1.72079
RightToes  5.82063e-011 0 -3.6325e-017
Spine  17.8093 -1.61666 -2.20632
Spine1  9.23783 -2.50286 0.727118
HEad  -24.9642 -28.675 12.4298
LeftShoulder1  0.318269 2.59625 -28.9385
LeftArm  -6.90776 5.08434 -36.1446
LeftForeArm  45.6462 -76.2378 -47.1774
LeftHand  -0.0233014 1.23785 0.452792
RightShoulder  -0.311694 -4.39288 27.8203
RightArm  -9.98217 -8.56239 43.3043
RightForeArm  38.8971 77.0583 57.2673
RightHand  -0.137303 0.530911 -2.68692
LeftUpLeg  8.6322 11.7314 1.87873
LeftLeg  12.4118 39.3232 3.1529
LeftFoot  -8.48986 0.153814 -4.15842
LeftToes  1.81573e-012 2.54609e-010 -3.45981e-011
135
root  -70.476 40.2571 10.2288 175.46 40.7072 177.714
RightUpLeg  -10.0156 -27.3862 -3.36649
RightLeg  15.6168 -8.24747 -2.08574
RightFoot  -4.46767 -0.0488492 0.397193
RightToes  5.82063e-011 0 -3.6325e-017
Spine  16.4789 -2.05462 0.871558
Spine1  9.16934 -2.64691 1.3964
HEad  -24.2944 -26.4756 10.8999
LeftShoulder1  0.342711 2.53333 -29.1956
LeftArm  -6.63649 5.3117 -36.4823
LeftForeArm  45.7417 -76.3035 -47.5713
LeftHand  -0.0587443 1.20452 1.46941
RightShoulder  -0.325597 -4.43067 27.952
RightArm  -10.6017 -9.87886 42.8247
RightForeArm  42.3368 77.5611 61.5373
RightHand  -0.234915 1.99539 -3.91163
LeftUpLeg  9.13305 15.3931 5.0224
LeftLeg  13.9646 38.5751 3.93242
LeftFoot  -9.18052 0.170422 -6.23495
LeftToes  1.81573e-012 2.54609e-010 -3.45981e-011
136
root  -69.7631 40.1822 9.86551 177.899 45.2932 -179.841
RightUpLeg  -9.75954 -26.9261 -1.00865
RightLeg  14.9784 -4.85842 0.186949
RightFoot  -4.15559 0.0419539 -1.12925
RightToes  5.82063e-011 0 -3.6325e-017
Spine  15.1393 -2.20286 4.1629
Spine1  9.26075 -2.41544 1.70998
HEad  -24.0663 -24.5015 9.16769
LeftShoulder1  0.377777 2.43271 -29.1459
LeftArm  -6.63348 5.60726 -37.1713
LeftForeArm  46.1763 -76.2899 -47.3008
LeftHand  -0.0350801 1.46572 0.844062
RightShoulder  -0.226276 -4.14068 27.7413
RightArm  -11.1326 -11.4232 42.2276
RightForeArm  46.4734 77.9892 65.5665
RightHand  -0.194298 2.44571 -3.09351
LeftUpLeg  8.93897 24.8626 9.16453
LeftLeg  17.8119 29.6501 7.24033
LeftFoot  -9.49462 0.22302 -9.83087
LeftToes  1.81573e-012 2.54609e-010 -3.45981e-011
137
root  -69.0057 40.0808 9.58873 179.062 49.9466 -178.393
RightUpLeg  -9.09945 -23.6688 0.313684
RightLeg  15.4222 -3.81487 1.06808
RightFoot  -5.13312 0.0520275 -1.60886
RightToes  5.82063e-011 0 -3.6325e-017
Spine  14.8037 -2.03549 5.69264
Spine1  9.31273 -2.19027 2.51814
HEad  -23.72 -22.432 7.57176
LeftShoulder1  0.395984 2.38406 -29.2447
LeftArm  -6.71188 5.83263 -37.1091
LeftForeArm  47.284 -76.4807 -48.1535
LeftHand  -0.00659595 1.10984 0.0278205
RightShoulder  -0.123996 -3.85306 26.7566
RightArm  -10.8996 -11.7788 42.6364
RightForeArm  43.9432 77.8212 64.6467
RightHand  -0.252569 1.85311 -4.20755
LeftUpLeg  8.20962 30.7175 12.4035
LeftLeg  24.0989 20.4414 10.382
LeftFoot  -7.92813 0.420895 -12.7525
LeftToes  1.81573e-012 2.54609e-010 -3.45981e-011
138
root  -68.2457 39.962 9.41343 178.865 53.7122 -178.106
RightUpLeg  -8.58677 -20.5455 0.985349
RightLeg  17.1322 -3.41824 0.902948
RightFoot  -6.67749 0.0391646 -2.06497
RightToes  5.82063e-011 0 -3.6325e-017
Spine  15.0951 -2.26314 5.94582
Spine1  9.63105 -2.37002 3.10027
HEad  -23.4784 -20.1451 7.22344
LeftShoulder1  0.397463 2.36877 -28.888
LeftArm  -6.83484 5.78023 -36.5748
LeftForeArm  48.9299 -76.8437 -50.0817
LeftHand  -0.0170739 1.91838 0.219557
RightShoulder  -0.18806 -4.0372 27.3545
RightArm  -9.87148 -10.3691 42.3437
RightForeArm  41.1776 77.5299 61.8488
RightHand  -0.23987 1.79968 -4.15554
LeftUpLeg  5.24109 25.8906 12.6743
LeftLeg  33.4513 17.6306 12.5168
LeftFoot  -3.41453 0.544216 -8.09959
LeftToes  1.81573e-012 2.54609e-010 -3.45981e-011
139
root  -67.5331 39.8667 9.14876 178.67 55.9826 -177.665
RightUpLeg  -7.21738 -18.2298 0.876358
RightLeg  18.1983 -3.6444 1.41022
RightFoot  -8.3106 0.00101301 -2.15227
RightToes  5.82063e-011 0 -3.6325e-017
Spine  15.3225 -3.01389 7.02092
Spine1  9.89649 -2.84664 3.41674
HEad  -23.4981 -17.8341 6.11861
LeftShoulder1  0.443702 2.2378 -28.9296
LeftArm  -6.65203 4.64222 -36.0516
LeftForeArm  46.6481 -76.3947 -47.8223
LeftHand  -0.00115011 1.78846 -0.281949
RightShoulder  -0.188311 -4.04209 27.0904
RightArm  -9.65097 -10.7511 42.9108
RightForeArm  42.1943 77.7083 63.983
RightHand  -0.279307 0.0606458 -5.96071
LeftUpLeg  1.54511 19.0873 11.6065
LeftLeg  41.2174 11.4914 10.7731
LeftFoot  0.716822 0.337092 -3.04915
LeftToes  1.81573e-012 2.54609e-010 -3.45981e-011
140
root  -66.8262 39.7939 8.8543 178.434 58.1427 -177.708
RightUpLeg  -6.42673 -16.1646 0.908364
RightLeg  19.3998 -3.4737 1.29918
RightFoot  -9.68699 -0.0354984 -2.08981
RightToes  5.82063e-011 0 -3.6325e-017
Spine  14.6993 -3.69875 8.25851
Spine1  11.0073 -3.07564 2.83321
HEad  -23.5733 -15.8096 5.19926
LeftShoulder1  0.445534 2.21675 -28.4865
LeftArm  -6.78531 3.25 -36.4753
LeftForeArm  43.7627 -75.8234 -45.3507
LeftHand  -0.00616751 1.80375 -0.122243
RightShoulder  -0.179338 -4.01809 26.9043
RightArm  -10.1611 -11.2371 43.3618
RightForeArm  46.2984 78.0076 66.2743
RightHand  -0.204976 0.455932 -4.09952
LeftUpLeg  -1.99894 13.2981 10.0715
LeftLeg  46.6513 1.2346 1.87505
LeftFoot  -1.35781 0.469908 -5.30885
LeftToes  1.81573e-012 2.54609e-010 -3.45981e-011
141
root  -66.0872 39.8263 8.55452 177.807 60.5993 -178.593
RightUpLeg  -5.51935 -13.2466 0.703116
RightLeg  19.5497 -3.77502 1.10022
RightFoot  -10.4985 -0.0563588 -1.97302
RightToes  5.82063e-011 0 -3.6325e-017
Spine  14.921 -3.70565 8.75531
Spine1  10.2842 -2.7412 2.54575
HEad  -23.2596 -14.8433 4.3905
LeftShoulder1  0.442532 2.23359 -28.7134
LeftArm  -6.30566 2.1592 -36.5974
LeftForeArm  43.1367 -75.5926 -44.2806
LeftHand  -0.00665118 1.94599 -0.125421
RightShoulder  -0.180562 -4.02355 26.8137
RightArm  -10.4012 -12.2412 42.8927
RightForeArm  50.7256 78.3552 70.3181
RightHand  -0.134099 -0.326897 -3.07667
LeftUpLeg  -5.5078 9.2616 8.11912
LeftLeg  50.7184 -2.92003 -3.29661
LeftFoot  -2.68058 0.59892 -7.67548
LeftToes  1.81573e-012 2.54609e-010 -3.45981e-011
